<?xml version="1.0" encoding="utf-8"?>
<!-- Generator: Adobe Illustrator 22.0.1, SVG Export Plug-In . SVG Version: 6.00 Build 0)  -->
<svg version="1.1" id="Layer_1" xmlns="http://www.w3.org/2000/svg" xmlns:xlink="http://www.w3.org/1999/xlink" x="0px" y="0px"
	 viewBox="0 0 834.9 107.4" style="enable-background:new 0 0 834.9 107.4;" xml:space="preserve">
<style type="text/css">
	.st0{fill:#3B8B52;}
	.st1{fill:#2F2F2F;}
</style>
<g>
	<g>
		<g>
			<g>
				<path class="st0" d="M27.3,41.2"/>
			</g>
			<g>
				<g>
					<path class="st1" d="M53.4,38.7h13.8L85,71.1h0.4L98.8,6.8h18.3l-21.9,93.7H77.8L60.6,61.4h-0.4L43,100.6H25.6L53.4,38.7z"/>
					<path class="st1" d="M44,102.1H23.3l29.1-64.9h15.7l16.6,30.1l12.9-62H119L96.4,102H76.8L60.4,64.7L44,102.1z M27.9,99.1H42
						l17.2-39.2h2.4L78.8,99H94l21.2-90.7H100L86.6,72.6h-2.5L66.3,40.2H54.4L27.9,99.1z"/>
				</g>
				<g>
					<path class="st0" d="M22.3,87.5L3.8,6.8h18.4L33.9,62L22.3,87.5z"/>
					<path class="st0" d="M21.8,92.2L1.9,5.3h21.5l12.1,56.9L21.8,92.2z M5.7,8.3l17.1,74.5l9.6-21L21,8.3H5.7z"/>
				</g>
			</g>
		</g>
		<g>
			<g>
				<path class="st0" d="M142.6,71.5c0,1.7,0.2,3.3,0.5,4.8c0.2,0.8,0.4,1.6,0.7,2.3l-16.4,7.1c-2.3-3.9-3.2-8.9-3.1-14.2
					C124.3,71.5,142.6,71.5,142.6,71.5z"/>
				<path class="st0" d="M126.8,87.6l-0.7-1.1c-2.3-3.9-3.4-9-3.3-15l0-1.5h21.3v1.5c0,1.4,0.2,2.9,0.5,4.5c0.2,0.7,0.4,1.4,0.6,2
					l0.6,1.4L126.8,87.6z M125.8,73c0.1,4.2,0.9,7.9,2.3,10.8l13.9-6c-0.1-0.4-0.2-0.7-0.3-1.1c-0.3-1.3-0.4-2.5-0.5-3.7H125.8z"/>
			</g>
			<g>
				<path class="st1" d="M177.8,34.3c0-4.3-1.4-7.8-4.3-10.5c-2.9-2.7-7-4-12.2-4c-5,0-8.9,1.1-11.6,3.3c-2.7,2.2-4.1,5.1-4.1,8.6
					c0,3.2,1.5,5.8,4.4,7.8s8,4.2,15.2,6.5c10.3,2.9,18.2,6.7,23.5,11.4s8,10.9,8,18.6c0,8-3.2,14.4-9.5,19s-14.7,7-25.1,7
					c-10.2,0-19.1-2.6-26.7-7.9l12.5-10.2c3.4,2.6,8.2,3.9,14.3,3.9c5.1,0,9-1.1,11.7-3.2s4.1-4.9,4.1-8.4c0-3.6-1.3-6.5-3.8-8.7
					s-7-4.2-13.4-6.2c-11.2-3.2-19.6-7-25.3-11.5c-5.7-4.4-8.6-10.5-8.6-18.2s3.3-14,9.8-18.8c6.5-4.9,14.9-7.3,25.1-7.3
					c10.3,0,18.7,2.7,25.2,8.2s9.5,12.6,9.3,20.6C196.3,34.3,177.8,34.3,177.8,34.3z"/>
				<path class="st1" d="M162.1,103.5c-10.5,0-19.8-2.7-27.6-8.2l-1.6-1.1l15-12.2l0.9,0.7c3.1,2.4,7.6,3.6,13.4,3.6
					c4.7,0,8.3-1,10.8-2.9c2.4-1.8,3.5-4.2,3.5-7.2c0-3.1-1.1-5.6-3.3-7.6c-2.2-2-6.4-3.9-12.9-5.9c-11.5-3.3-19.9-7.1-25.8-11.8
					c-6.1-4.7-9.2-11.2-9.2-19.4c0-8.2,3.5-14.9,10.4-20c6.7-5,15.4-7.6,26-7.6c10.7,0,19.5,2.9,26.2,8.6c6.6,5.6,10,13.2,9.8,21.8
					l0,1.5h-21.5v-1.5c0-3.9-1.3-7-3.8-9.4c-2.6-2.4-6.3-3.6-11.2-3.6c-4.7,0-8.2,1-10.7,3c-2.4,1.9-3.5,4.4-3.5,7.4
					c0,2.7,1.2,4.8,3.8,6.6c2.8,1.9,7.9,4.1,14.8,6.3c10.5,3,18.6,6.9,24,11.7c5.6,5,8.5,11.6,8.5,19.7c0,8.5-3.4,15.3-10.1,20.2
					C181.5,101,172.7,103.5,162.1,103.5z M137.9,94c6.9,4.3,15,6.5,24.2,6.5c10,0,18.1-2.3,24.2-6.7c5.9-4.3,8.9-10.3,8.9-17.8
					c0-7.2-2.5-13.1-7.5-17.5c-5.1-4.5-12.8-8.2-22.9-11.1c-7.3-2.3-12.6-4.6-15.6-6.7c-3.3-2.3-5-5.4-5-9c0-3.9,1.6-7.3,4.7-9.8
					c3-2.4,7.2-3.6,12.5-3.6c5.6,0,10.1,1.5,13.2,4.4c2.8,2.6,4.4,6,4.7,10.1h15.6c-0.2-7.2-3.1-13.2-8.8-18
					C179.9,9.6,171.7,7,161.8,7c-9.9,0-18,2.4-24.2,7c-6.1,4.5-9.2,10.4-9.2,17.6c0,7.2,2.7,12.9,8,17c5.6,4.4,13.7,8.1,24.8,11.2
					c7,2.2,11.4,4.2,14,6.5c2.9,2.5,4.3,5.8,4.3,9.8c0,3.9-1.6,7.2-4.7,9.6c-3,2.3-7.2,3.5-12.6,3.5c-5.9,0-10.7-1.2-14.2-3.5
					L137.9,94z"/>
			</g>
		</g>
		<g>
			<g>
				<path class="st1" d="M207.5,6.8h31.7c11,0,19.6,2.1,25.8,6.4s9.3,10.7,9.3,19.2c0,4.3-1.1,8.2-3.4,11.6c-2.3,3.4-5.6,6-10,7.7
					c5.6,1.2,9.8,3.8,12.6,7.7s4.2,8.5,4.2,13.7c0,9-3,15.8-8.9,20.4s-14.3,6.9-25.2,6.9h-17.3V85.9h17.3c5,0,8.8-1.1,11.4-3.2
					s3.9-5.4,3.9-9.6c0-4.6-1.1-8.1-3.3-10.5S249.8,59,245,59h-18.7V46h13.5c5,0,8.9-1,11.6-3.1s4.1-5.1,4.1-9
					c0-4.3-1.4-7.5-4.1-9.6c-2.7-2.1-6.8-3.1-12.2-3.1h-12.9L207.5,6.8z"/>
				<path class="st1" d="M243.6,101.9h-18.8V84.4h18.8c4.6,0,8.1-1,10.5-2.9c2.2-1.8,3.3-4.6,3.3-8.4c0-4.2-1-7.4-2.9-9.5
					c-1.9-2.1-5.1-3.1-9.5-3.1h-20.2v-16h15c4.7,0,8.3-0.9,10.7-2.8c2.4-1.8,3.5-4.4,3.5-7.8c0-3.8-1.2-6.6-3.5-8.4
					c-2.4-1.8-6.2-2.8-11.3-2.8h-13.4L203.1,5.3h36.1c11.3,0,20.3,2.2,26.7,6.7c6.6,4.6,9.9,11.5,9.9,20.4c0,4.7-1.2,8.9-3.7,12.4
					c-1.8,2.7-4.2,4.8-7,6.5c4.1,1.5,7.3,3.9,9.6,7.2c3,4.1,4.5,9,4.5,14.6c0,9.4-3.2,16.7-9.5,21.6
					C263.6,99.5,254.8,101.9,243.6,101.9z M227.8,98.9h15.8c10.5,0,18.7-2.2,24.3-6.6c5.5-4.3,8.3-10.8,8.3-19.2
					c0-4.9-1.3-9.2-3.9-12.8c-2.6-3.6-6.5-6-11.7-7.1l-4.9-1.1l4.7-1.8c4-1.6,7.1-4,9.3-7.1c2.1-3.1,3.1-6.7,3.1-10.8
					c0-8.1-2.8-13.9-8.7-18c-5.9-4.1-14.3-6.1-24.9-6.1h-27.3l14.9,11.4h12.4c5.9,0,10.2,1.1,13.1,3.4c3.1,2.4,4.7,6,4.7,10.8
					c0,4.3-1.6,7.8-4.7,10.2c-2.9,2.3-7.1,3.4-12.5,3.4h-12v10H245c5.3,0,9.2,1.4,11.7,4.1c2.5,2.7,3.7,6.5,3.7,11.5
					c0,4.7-1.5,8.4-4.5,10.8c-2.9,2.3-7.1,3.5-12.3,3.5h-15.8V98.9z"/>
			</g>
			<g>
				<path class="st0" d="M223.2,27.9v6.4l0,0h-18.8V13.4L223.2,27.9z"/>
				<path class="st0" d="M224.7,35.8h-21.8V10.3l21.8,16.8V35.8z M205.9,32.8h15.8v-4.2l-15.8-12.2V32.8z"/>
			</g>
		</g>
	</g>
	<g>
		<g>
			<path class="st1" d="M319.2,58.4h0.2l8.1-23.7h8.4l-14.1,38h-8.2l-2.1-22.3h-0.2l-9.1,22.3H294l-1.9-38h8.5l0.6,23.6h0.2
				l9.7-23.6h6L319.2,58.4z"/>
		</g>
		<g>
			<path class="st1" d="M343,72.7h-8.7l7.6-38h8.7L343,72.7z"/>
		</g>
		<g>
			<path class="st1" d="M380.2,72.7h-8.7L364,49.4h-0.2l-4.7,23.3h-8.7l7.6-38h8.7l7.5,23.3h0.2l4.7-23.3h8.7L380.2,72.7z"/>
		</g>
		<g>
			<path class="st1" d="M416.8,72.7h-8.7l-7.5-23.3h-0.2l-4.7,23.3H387l7.6-38h8.7l7.5,23.3h0.2l4.7-23.3h8.7L416.8,72.7z"/>
		</g>
		<g>
			<path class="st1" d="M432.9,72.7h-8.7l7.6-38h8.7L432.9,72.7z"/>
		</g>
		<g>
			<path class="st1" d="M470,72.7h-8.7l-7.5-23.3h-0.2L449,72.7h-8.7l7.6-38h8.7l7.5,23.3h0.2l4.7-23.3h8.7L470,72.7z"/>
		</g>
		<g>
			<path class="st1" d="M506,67.5c-1.5,1.5-3.6,2.9-6.1,4.1s-5.5,1.7-9,1.7c-4.1,0-7.3-1.5-9.6-4.4c-2.3-2.9-3-6.7-2.1-11.2l1.6-7.9
				c1-4.9,3.1-8.7,6.3-11.5c3.2-2.7,6.9-4.1,11.2-4.1c4.3,0,7.4,1.2,9.4,3.5s2.7,5.4,2.3,9.2l-0.1,0.1h-8.2c0.1-2-0.1-3.5-0.8-4.5
				c-0.7-1-1.9-1.5-3.7-1.5c-1.7,0-3.2,0.8-4.7,2.5s-2.5,3.7-3,6.3l-1.6,8c-0.6,2.8-0.5,5,0.3,6.5c0.8,1.5,2.1,2.3,4.1,2.3
				c1.3,0,2.4-0.1,3.3-0.4s1.6-0.6,2.2-1l1.2-6h-5.2l1.2-5.8h13.9L506,67.5z"/>
		</g>
		<g>
			<path class="st0" d="M802.4,41.5h-9.1L787,72.8h-8.8l6.3-31.3h-9l1.4-6.8h26.9L802.4,41.5z"/>
		</g>
		<g>
			<path class="st0" d="M820.9,63.3c0.3-1.6,0.1-2.7-0.7-3.5c-0.7-0.7-2.2-1.6-4.4-2.6c-4.2-1.5-7.3-3.2-9.3-5.3
				c-2-2-2.7-4.6-2.1-7.7c0.6-3.2,2.3-5.7,5.1-7.5c2.7-1.8,6-2.6,9.8-2.6c4,0,7.1,1,9.3,3.1s3,4.9,2.2,8.5l-0.1,0.2h-8.5
				c0.3-1.5,0-2.8-0.8-3.7s-2-1.4-3.5-1.4c-1.1,0-2.1,0.3-3,1c-0.9,0.6-1.5,1.4-1.7,2.3c-0.3,1.4,0,2.5,0.8,3.2s2.7,1.6,5.6,2.7
				c3.8,1.3,6.5,3,8.3,5.1c1.7,2.1,2.3,4.7,1.6,8c-0.7,3.4-2.4,5.9-5,7.6c-2.7,1.7-5.9,2.5-9.8,2.5c-3.8,0-7.1-1-9.8-2.9
				s-3.6-4.8-2.7-8.8l0.1-0.2h8.5c-0.4,1.9,0,3.2,1.1,4c1.1,0.7,2.5,1.1,4.2,1.1c1,0,2.1-0.3,3-0.9C820.1,65,820.7,64.2,820.9,63.3z
				"/>
		</g>
		<g>
			<path class="st0" d="M532.3,63.3c0.3-1.6,0.1-2.7-0.7-3.5c-0.7-0.7-2.2-1.6-4.4-2.6c-4.2-1.5-7.3-3.2-9.3-5.3
				c-2-2-2.7-4.6-2.1-7.7c0.6-3.2,2.3-5.7,5.1-7.5c2.7-1.8,6-2.6,9.8-2.6c4,0,7.1,1,9.3,3.1s3,4.9,2.2,8.5l-0.1,0.2h-8.5
				c0.3-1.5,0-2.8-0.8-3.7s-2-1.4-3.5-1.4c-1.1,0-2.1,0.3-3,1c-0.9,0.6-1.5,1.4-1.7,2.3c-0.3,1.4,0,2.5,0.8,3.2s2.7,1.6,5.6,2.7
				c3.8,1.3,6.5,3,8.3,5.1c1.7,2.1,2.3,4.7,1.6,8c-0.7,3.4-2.4,5.9-5,7.6c-2.7,1.7-5.9,2.5-9.8,2.5c-3.8,0-7.1-1-9.8-2.9
				s-3.6-4.8-2.7-8.8l0.1-0.2h8.5c-0.4,1.9,0,3.2,1.1,4c1.1,0.7,2.5,1.1,4.2,1.1c1,0,2.1-0.3,3-0.9C531.5,65,532.1,64.2,532.3,63.3z
				"/>
		</g>
		<g>
			<path class="st0" d="M555.2,59.7l-2.6,13.1h-8.8l7.6-38.1H566c4,0,7,1.2,9.2,3.5s2.9,5.4,2.2,9c-0.8,4-2.6,7.1-5.5,9.2
				c-2.9,2.2-6.5,3.3-10.8,3.3C561.1,59.7,555.2,59.7,555.2,59.7z M556.6,52.9h5.9c1.6,0,2.9-0.5,4.1-1.6c1.1-1.1,1.9-2.4,2.2-4
				c0.3-1.8,0.2-3.2-0.4-4.2s-1.8-1.6-3.5-1.6H559L556.6,52.9z"/>
		</g>
		<g>
			<path class="st0" d="M610.9,57.2c-1,5-3.1,9-6.2,11.9c-3.1,2.9-6.9,4.3-11.4,4.3c-4.3,0-7.7-1.6-10.2-4.7
				c-2.6-3.1-3.4-6.9-2.5-11.5l1.4-6.9c1-5.1,3-9,6.1-11.9c3-2.9,6.8-4.3,11.3-4.3c4.3,0,7.7,1.6,10.3,4.7c2.6,3.1,3.5,7,2.6,11.5
				L610.9,57.2z M603.6,50.3c0.6-2.8,0.3-5-0.8-6.8c-1.1-1.7-2.7-2.6-4.8-2.6c-1.9,0-3.5,0.8-4.7,2.5s-2.1,4-2.7,6.8l-1.4,6.9
				c-0.6,2.9-0.4,5.1,0.6,6.8c1,1.7,2.6,2.5,4.8,2.5c1.9,0,3.5-0.9,4.8-2.6c1.3-1.7,2.2-4,2.8-6.8L603.6,50.3z"/>
		</g>
		<g>
			<path class="st0" d="M625.3,58.2l-2.9,14.6h-8.8l7.6-38.1H635c3.9,0,6.9,1,9,3.1s2.9,4.9,2.2,8.3c-0.4,2.1-1.3,3.9-2.5,5.2
				c-1.2,1.4-2.9,2.5-5,3.3c2,0.7,3.3,1.8,4,3.4c0.7,1.6,0.8,3.4,0.4,5.6l-0.5,2.4c-0.2,1-0.3,2.2-0.3,3.4c0,1.3,0.3,2.2,0.9,2.7
				l-0.1,0.5h-9c-0.5-0.5-0.8-1.5-0.7-2.8s0.2-2.6,0.5-3.9l0.5-2.3c0.4-1.9,0.3-3.4-0.4-4.3c-0.6-0.9-1.8-1.3-3.4-1.3h-5.3V58.2z
				 M626.7,51.4h5.1c1.4,0,2.6-0.4,3.6-1.2s1.7-2,2-3.5c0.3-1.7,0.2-2.9-0.5-3.8s-1.7-1.3-3.3-1.3h-5L626.7,51.4z"/>
		</g>
		<g>
			<path class="st0" d="M677.6,41.5h-9.1l-6.3,31.3h-8.8l6.3-31.3h-9l1.4-6.8H679L677.6,41.5z"/>
		</g>
		<g>
			<path class="st0" d="M696.1,63.3c0.3-1.6,0.1-2.7-0.7-3.5c-0.7-0.7-2.2-1.6-4.4-2.6c-4.2-1.5-7.3-3.2-9.3-5.3
				c-2-2-2.7-4.6-2.1-7.7c0.6-3.2,2.3-5.7,5.1-7.5c2.7-1.8,6-2.6,9.8-2.6c4,0,7.1,1,9.3,3.1s3,4.9,2.2,8.5l0,0.3h-8.5
				c0.3-1.5,0-2.8-0.8-3.7s-2-1.4-3.5-1.4c-1.1,0-2.1,0.3-3,1c-0.9,0.6-1.5,1.4-1.7,2.3c-0.3,1.4,0,2.5,0.8,3.2s2.7,1.6,5.6,2.7
				c3.8,1.3,6.5,3,8.3,5.1c1.7,2.1,2.3,4.7,1.6,8c-0.7,3.4-2.4,5.9-5,7.6c-2.7,1.7-5.9,2.5-9.8,2.5c-3.8,0-7.1-1-9.8-2.9
				s-3.6-4.8-2.7-8.8l0.1-0.2h8.5c-0.4,1.9,0,3.2,1.1,4c1.1,0.7,2.5,1.1,4.2,1.1c1,0,2.1-0.3,3-0.9C695.3,65,695.9,64.2,696.1,63.3z
				"/>
		</g>
		<g>
			<path class="st0" d="M707.7,72.8l7.6-38.1h12.4c4.2,0,7.4,0.9,9.7,2.7s3.1,4.4,2.4,7.8c-0.4,1.9-1.1,3.6-2.2,5
				c-1,1.4-2.5,2.4-4.3,3.1c2,0.5,3.3,1.5,4,3s0.8,3.3,0.4,5.3c-0.8,3.9-2.5,6.8-5.2,8.6c-2.6,1.8-6.2,2.7-10.7,2.7L707.7,72.8
				L707.7,72.8z M719.7,56.4l-1.9,9.6h5.3c1.6,0,2.8-0.4,3.8-1.1c1-0.8,1.7-1.9,2-3.4c0.3-1.8,0.2-3-0.3-3.8s-1.6-1.2-3.2-1.2
				L719.7,56.4L719.7,56.4z M720.8,50.6h3.7c1.7,0,3-0.4,4.1-1.2s1.8-1.8,2.1-3.2c0.3-1.7,0.1-2.9-0.6-3.6c-0.7-0.7-2-1-3.9-1h-3.6
				L720.8,50.6z"/>
		</g>
		<g>
			<path class="st0" d="M766.8,56.5h-13.6l-1.9,9.5h16.1l-1.4,6.8h-24.9l7.6-38.1h24.9l-1.4,6.8h-16.1l-1.6,8.2h13.6L766.8,56.5z"/>
		</g>
	</g>
</g>
</svg>
